<svg id="Capa_1" data-name="Capa 1" xmlns="http://www.w3.org/2000/svg" viewBox="0 0 283.76 197.07"><defs><style>.cls-1{stroke:#000;stroke-miterlimit:10;stroke-width:3px;}</style></defs><title>hippod</title><path d="M467.5,444.5h32s0-7.86,5.84-20.45A27.86,27.86,0,0,1,494.5,403.5s3.84,10,13.92,14.49a114.1,114.1,0,0,1,8.08-12.49h0s-8,18-4,39h31c20-55,64-44,74,0h31c8.9-50.45.13-75.89-27.16-98.25-.41-.37-.43-1.14.09-1.34,5.5-2.18,1.09-8.13-4.57-5.65a13.4,13.4,0,0,0-3.51,2.59,20.74,20.74,0,0,0-2.47,3.44c-2.26,5.85,5,9,6.62,3.21,23,28,4,65-39,42-11-5-24,1-24,1h0c-28.16,10.62-41.35-8.38-38.4-28.24,5.4-25.76,35.4-24.76,46.4-34.76,2,10,14,8,15,0-7,2-7-6-3-6,0,0-1-2-4-1,18.52-24.69-14.29-38.5-10.64-18.78.49,2.64,4.64,5.78,3.64,9.78,0,0-33-1-56,20,0,0-10,4-19-23,0,0-5,19,9,32C497.5,341.5,469.5,367.5,467.5,444.5Z" transform="translate(-420.12 -293.34)"/><path d="M564.5,444.5h31v-28s-18-14-35,8Z" transform="translate(-420.12 -293.34)"/><ellipse cx="547.49" cy="365.51" rx="7.19" ry="12.21" transform="translate(-484.05 316.14) rotate(-55.48)"/><ellipse cx="589.49" cy="365.51" rx="12.21" ry="7.19" transform="translate(-524.22 77.35) rotate(-32.23)"/><path d="M600.4,322.7a7.75,7.75,0,1,0,3.6,6.55,7.12,7.12,0,0,0-.1-1.23C599.16,333.13,593.89,325.84,600.4,322.7Z" transform="translate(-420.12 -293.34)"/><path d="M604.5,310.5c-4.53-4.53,1-13,1-13,5-7,10-3,10-3,8,5,2,11,2,11C612.5,310.5,607.5,312.5,604.5,310.5Z" transform="translate(-420.12 -293.34)"/><path class="cls-1" d="M421.62,487.67V437H428v20h29.88V437h6.33v50.67h-6.33V462.84H428v24.83Z" transform="translate(-420.12 -293.34)"/><path class="cls-1" d="M478.67,487.67V448.38h6.24v39.29Z" transform="translate(-420.12 -293.34)"/><path class="cls-1" d="M504.65,470.55v17.12H498.5v-39.2H527q6.06,0,9.43,2.87a10,10,0,0,1,3.38,8.05,10.5,10.5,0,0,1-3.35,8,12.43,12.43,0,0,1-8.82,3.12Zm0-5.74H527a7.38,7.38,0,0,0,4.8-1.38,4.8,4.8,0,0,0,1.67-3.94,4.87,4.87,0,0,0-1.6-3.91,6.89,6.89,0,0,0-4.59-1.37H504.65Z" transform="translate(-420.12 -293.34)"/><path class="cls-1" d="M554.68,470.55v17.12h-6.15v-39.2H577q6.06,0,9.43,2.87a10,10,0,0,1,3.38,8.05,10.5,10.5,0,0,1-3.35,8,12.44,12.44,0,0,1-8.82,3.12Zm0-5.74H577a7.38,7.38,0,0,0,4.8-1.38,5.53,5.53,0,0,0,.07-7.85,6.89,6.89,0,0,0-4.59-1.37H554.68Z" transform="translate(-420.12 -293.34)"/><path class="cls-1" d="M619.07,488.91q-10.46,0-17.21-5.92a19.77,19.77,0,0,1,0-29.72q6.72-5.86,17.23-5.86t17.33,5.83a19.81,19.81,0,0,1,0,29.77Q629.63,488.91,619.07,488.91Zm0-5.74q7.86,0,12.81-4.25a14.21,14.21,0,0,0,0-21.59q-5-4.27-12.79-4.27t-12.73,4.25a14.29,14.29,0,0,0,0,21.61Q611.28,483.17,619.07,483.17Z" transform="translate(-420.12 -293.34)"/><path class="cls-1" d="M675.76,437q12,0,19.3,7.06t7.32,18.41q0,11.43-7.21,18.31t-19.41,6.89H654.05V437Zm0,5.82H660.34v39h15.42q9.36,0,14.73-5.26t5.37-14.2q0-8.82-5.46-14.19T675.76,442.82Z" transform="translate(-420.12 -293.34)"/></svg>