<?xml version="1.0" encoding="iso-8859-1"?>
<!-- Generator: Adobe Illustrator 19.1.0, SVG Export Plug-In . SVG Version: 6.00 Build 0)  -->
<svg xmlns="http://www.w3.org/2000/svg" xmlns:xlink="http://www.w3.org/1999/xlink" version="1.1" id="Capa_1" x="0px" y="0px" viewBox="0 0 115.376 115.376" style="enable-background:new 0 0 115.376 115.376;" xml:space="preserve" width="512px" height="512px">
<g>
	<g>
		<path d="M74.783,59.122c8.976-5.678,14.952-15.667,14.952-27.074C89.735,14.348,75.387,0,57.688,0    C39.987,0,25.64,14.348,25.64,32.048c0,11.407,5.977,21.396,14.952,27.074C18.343,66.305,1.848,87.025,1.284,111.436    c-0.049,2.123,1.633,3.884,3.755,3.936c2.143,0.093,3.887-1.633,3.936-3.755C9.58,85.411,31.431,64.095,57.688,64.095    c26.256,0,48.107,21.318,48.712,47.521c0.049,2.092,1.762,3.755,3.846,3.755h0.09c2.122,0,3.804-1.81,3.755-3.933    C113.526,87.028,97.032,66.305,74.783,59.122 M33.331,32.048c0-13.429,10.928-24.356,24.356-24.356S82.043,18.62,82.043,32.048    S71.116,56.404,57.688,56.404S33.331,45.477,33.331,32.048" fill="#FFFFFF"/>
	</g>
	<g>
	</g>
	<g>
	</g>
	<g>
	</g>
	<g>
	</g>
	<g>
	</g>
	<g>
	</g>
	<g>
	</g>
	<g>
	</g>
	<g>
	</g>
	<g>
	</g>
	<g>
	</g>
	<g>
	</g>
	<g>
	</g>
	<g>
	</g>
	<g>
	</g>
</g>
<g>
</g>
<g>
</g>
<g>
</g>
<g>
</g>
<g>
</g>
<g>
</g>
<g>
</g>
<g>
</g>
<g>
</g>
<g>
</g>
<g>
</g>
<g>
</g>
<g>
</g>
<g>
</g>
<g>
</g>
</svg>
